# xmcd
#
# Track frame offsets:
#	150
#	10502
#	22290
#	33671
#	46450
#	54615
#	64343
#	73500
#	83512
#	91787
#	100571
#	111475
#	115949
#	122679
#	132880
#	142772
#	153028
#	163178
#	172952
#	182789
#	188857
#	193117
#
# Disc length: 2652 seconds
#
# Revision: 0
# Processed by: cddbd v1.5.2PL0 Copyright (c) Steve Scherf et al.
# Submitted via: EasyCDDAExtractor 15.3.0.1
#
DISCID=260a5a16
DTITLE=Jack Bradshaw - Saturday Night Special
DYEAR=1900
DGENRE=
TTITLE0=Don't Tease Me
TTITLE1=Don't Cause Me To Hate You
TTITLE2=My Heart My Heart (1954)
TTITLE3=Seaching
TTITLE4=Jo Jo
TTITLE5=Men Are Weak
TTITLE6=Saturday Night Special
TTITLE7=Out Of The Picture
TTITLE8=It Just Ain't Right
TTITLE9=Naughty Girls
TTITLE10=Oh Careless Me
TTITLE11=Let's Baby
TTITLE12=No No
TTITLE13=Welcome Heart
TTITLE14=You Hurt Me
TTITLE15=I Got What You Need
TTITLE16=My Heart My Heart (1955)
TTITLE17=Flirting With You
TTITLE18=What The Matter With My Heart
TTITLE19=Two Hearts
TTITLE20=Two Rocks Four
TTITLE21=Unfinished Love Affair
EXTD=
EXTT0=
EXTT1=
EXTT2=
EXTT3=
EXTT4=
EXTT5=
EXTT6=
EXTT7=
EXTT8=
EXTT9=
EXTT10=
EXTT11=
EXTT12=
EXTT13=
EXTT14=
EXTT15=
EXTT16=
EXTT17=
EXTT18=
EXTT19=
EXTT20=
EXTT21=
PLAYORDER=
